HIERARCHY
ROOT Hips
{
	OFFSET 0.000000 0.000000 0.000000
	CHANNELS 6 Xposition Yposition Zposition Zrotation Yrotation Xrotation 
	JOINT LowerBack
	{
		OFFSET 0.000000 0.000000 0.000000
		CHANNELS 3 Zrotation Yrotation Xrotation
		JOINT Spine
		{
			OFFSET 0.028270 2.035590 -0.193380
			CHANNELS 3 Zrotation Yrotation Xrotation
			JOINT Spine1
			{
				OFFSET 0.056720 2.048850 -0.042750
				CHANNELS 3 Zrotation Yrotation Xrotation
				JOINT Neck
				{
					OFFSET 0.000000 0.000000 0.000000
					CHANNELS 3 Zrotation Yrotation Xrotation
					JOINT Neck1
					{
						OFFSET -0.054170 1.746240 0.172020
						CHANNELS 3 Zrotation Yrotation Xrotation
						JOINT Head
						{
							OFFSET 0.104070 1.761360 -0.123970
							CHANNELS 3 Zrotation Yrotation Xrotation
							End Site
							{
								OFFSET 0.000000 0.000000 0.000000
							}
						}
					}
				}
				JOINT LeftShoulder
				{
					OFFSET 0.000000 0.000000 0.000000
					CHANNELS 3 Zrotation Yrotation Xrotation
					JOINT LeftArm
					{
						OFFSET 3.362410 1.200890 -0.311210
						CHANNELS 3 Zrotation Yrotation Xrotation
						JOINT LeftForeArm
						{
							OFFSET 4.983000 -0.000000 -0.000000
							CHANNELS 3 Zrotation Yrotation Xrotation
							JOINT LeftHand
							{
								OFFSET 3.483560 -0.000000 -0.000000
								CHANNELS 3 Zrotation Yrotation Xrotation
								JOINT LeftFingerBase
								{
									OFFSET 0.000000 0.000000 0.000000
									CHANNELS 3 Zrotation Yrotation Xrotation
									JOINT LeftHandIndex1
									{
										OFFSET 0.715260 -0.000000 -0.000000
										CHANNELS 3 Zrotation Yrotation Xrotation
										End Site
										{
											OFFSET 0.000000 0.000000 0.000000
										}
									}
								}
								JOINT LThumb
								{
									OFFSET 0.000000 0.000000 0.000000
									CHANNELS 3 Zrotation Yrotation Xrotation
									End Site
									{
										OFFSET 0.000000 0.000000 0.000000
									}
								}
							}
						}
					}
				}
				JOINT RightShoulder
				{
					OFFSET 0.000000 0.000000 0.000000
					CHANNELS 3 Zrotation Yrotation Xrotation
					JOINT RightArm
					{
						OFFSET -3.136600 1.374050 -0.404650
						CHANNELS 3 Zrotation Yrotation Xrotation
						JOINT RightForeArm
						{
							OFFSET -5.241900 -0.000000 -0.000000
							CHANNELS 3 Zrotation Yrotation Xrotation
							JOINT RightHand
							{
								OFFSET -3.444170 -0.000000 -0.000000
								CHANNELS 3 Zrotation Yrotation Xrotation
								JOINT RightFingerBase
								{
									OFFSET 0.000000 0.000000 0.000000
									CHANNELS 3 Zrotation Yrotation Xrotation
									JOINT RightHandIndex1
									{
										OFFSET -0.622530 -0.000000 -0.000000
										CHANNELS 3 Zrotation Yrotation Xrotation
										End Site
										{
											OFFSET 0.000000 0.000000 0.000000
										}
									}
								}
								JOINT RThumb
								{
									OFFSET 0.000000 0.000000 0.000000
									CHANNELS 3 Zrotation Yrotation Xrotation
									End Site
									{
										OFFSET 0.000000 0.000000 0.000000
									}
								}
							}
						}
					}
				}
			}
		}
	}
}
}
MOTION
Frames: 18
Frame Time: 0.008333
8.845943 15.670452 1.922217 2.715660 39.428691 23.028396 1.843747 -2.269203 -9.178243 -0.363769 -2.971114 -4.821512 -8.433386 -3.001835 -2.074270 12.412518 -6.969285 -6.677779 -3.550954 -0.284296 0.293141 0.000000 0.000000 0.000000 -1.300729 8.638548 0.431457 -71.824309 4.549525 20.889834 179.698722 -85.010114 179.866231 24.677034 -11.316010 -2.646548 -0.440161 0.572394 -0.000000 0.000000 0.000000 0.000000 0.000000 0.000000 0.000000 9.257208 -1.167391 -2.579713 79.544995 12.099153 19.273160 -179.864400 63.277438 179.831850 -14.651578 35.888125 -5.068552 0.217736 -1.508847 -0.000000 0.000000 0.000000 0.000000 0.000000 0.000000 0.000000 
8.977836 15.719383 2.014780 2.722059 38.773641 23.313086 1.663069 -1.853055 -9.111202 -0.480625 -2.534514 -4.887629 -8.517962 -2.556320 -2.376872 12.244855 -5.761441 -6.385357 -3.657720 -0.294351 0.356587 0.000000 0.000000 0.000000 -1.011531 9.075597 0.566244 -70.997595 5.927546 20.522954 179.726333 -84.361276 179.869135 24.855402 -11.410339 -2.684714 -0.437297 0.561428 -0.000000 0.000000 0.000000 0.000000 0.000000 0.000000 0.000000 9.487900 0.412480 -2.604844 80.659309 13.276795 19.818935 -179.777460 63.743044 179.826279 -14.885922 36.266006 -5.207591 0.216801 -1.525305 -0.000000 0.000000 0.000000 0.000000 0.000000 0.000000 0.000000 
9.111726 15.783534 2.115368 2.772849 38.161830 23.625734 1.419288 -1.423704 -9.072107 -0.602772 -2.079894 -4.956949 -8.569003 -2.093170 -2.660326 12.064022 -4.695609 -6.142078 -3.744046 -0.302464 0.407050 0.000000 0.000000 0.000000 -0.716740 9.515582 0.684031 -70.141293 7.248605 20.329714 179.754838 -83.680112 179.872366 24.942007 -11.581147 -2.731141 -0.434959 0.553473 -0.000000 0.000000 0.000000 0.000000 0.000000 0.000000 0.000000 9.658340 1.859511 -2.605323 81.585584 14.417609 20.510701 -179.713521 64.144832 179.822232 -15.089222 36.644613 -5.338493 0.217699 -1.543075 -0.000000 0.000000 0.000000 0.000000 0.000000 0.000000 0.000000 
9.248485 15.862321 2.224286 2.850083 37.588642 23.957538 1.124890 -0.982466 -9.072134 -0.728578 -1.610781 -5.028725 -8.592153 -1.615411 -2.910390 11.880255 -3.796077 -5.958698 -3.811327 -0.308743 0.442051 0.000000 0.000000 0.000000 -0.424159 9.967086 0.778915 -69.261060 8.499891 20.280483 179.783376 -82.985212 179.875973 24.953224 -11.824711 -2.786433 -0.433181 0.548059 -0.000000 0.000000 0.000000 0.000000 0.000000 0.000000 0.000000 9.780266 3.144728 -2.580593 82.337945 15.528188 21.359480 -179.677669 64.490008 179.820201 -15.231841 37.018642 -5.449454 0.220174 -1.561970 -0.000000 0.000000 0.000000 0.000000 0.000000 0.000000 0.000000 
9.388106 15.955359 2.341546 2.958118 37.052758 24.300632 0.774396 -0.536893 -9.105932 -0.860111 -1.133843 -5.100713 -8.595007 -1.129364 -3.121247 11.707539 -3.079614 -5.836237 -3.863877 -0.313564 0.461491 0.000000 0.000000 0.000000 -0.140928 10.410295 0.847289 -68.359276 9.699595 20.317570 179.811023 -82.274483 179.879893 24.901342 -12.133549 -2.849801 -0.431688 0.544649 -0.000000 0.000000 0.000000 0.000000 0.000000 0.000000 0.000000 9.885473 4.243765 -2.525714 82.933666 16.620141 22.374615 -179.674955 64.799740 179.820694 -15.293701 37.380209 -5.530877 0.224242 -1.581515 -0.000000 0.000000 0.000000 0.000000 0.000000 0.000000 0.000000 
9.530995 16.061557 2.466883 3.065576 36.551381 24.637519 0.392348 -0.089419 -9.177047 -0.993407 -0.654045 -5.170584 -8.582980 -0.639523 -3.278628 11.551374 -2.514375 -5.779351 -3.901649 -0.316858 0.464142 0.000000 0.000000 0.000000 0.151473 10.921145 0.892656 -67.460678 10.765404 20.452840 179.839091 -81.609538 179.884131 24.817932 -12.489718 -2.920246 -0.431129 0.542713 -0.000000 0.000000 0.000000 0.000000 0.000000 0.000000 0.000000 9.963127 5.189319 -2.454767 83.412859 17.657759 23.513285 -179.698453 65.066300 179.823607 -15.234696 37.727115 -5.566776 0.228310 -1.601640 0.000000 0.000000 0.000000 0.000000 0.000000 0.000000 0.000000 
9.674239 16.181528 2.601301 3.252860 36.055439 24.953865 -0.104799 0.341832 -9.229004 -1.147139 -0.177584 -5.231949 -8.571549 -0.151929 -3.402810 11.447366 -2.109808 -5.762578 -3.937676 -0.319840 0.456070 0.000000 0.000000 0.000000 0.451639 11.392755 0.914957 -66.535220 11.815818 20.560495 179.865919 -80.923601 179.888609 24.697351 -12.880915 -2.993692 -0.430363 0.541461 -0.000000 0.000000 0.000000 0.000000 0.000000 0.000000 0.000000 10.120151 5.962456 -2.343944 83.785273 18.672377 24.791892 -179.756831 65.334183 179.829556 -15.075545 38.046373 -5.561435 0.233933 -1.621791 -0.000000 0.000000 0.000000 0.000000 0.000000 0.000000 0.000000 
9.823152 16.311011 2.741994 3.348017 35.620233 25.245034 -0.531598 0.770490 -9.352382 -1.282585 0.285618 -5.296782 -8.545944 0.322800 -3.470805 11.343610 -1.827821 -5.801862 -3.956375 -0.321281 0.435429 0.000000 0.000000 0.000000 0.744392 11.933129 0.913740 -65.667133 12.781288 20.677208 179.890809 -80.270958 179.893162 24.564625 -13.283820 -3.067621 -0.430273 0.540942 -0.000000 0.000000 0.000000 0.000000 0.000000 0.000000 0.000000 10.202307 6.601099 -2.233036 84.112529 19.612688 26.160943 -179.831889 65.583884 179.837436 -14.799542 38.336835 -5.507093 0.238536 -1.641196 -0.000000 0.000000 0.000000 0.000000 0.000000 0.000000 0.000000 
9.974709 16.450011 2.889533 3.436277 35.221170 25.499284 -0.970890 1.177070 -9.484525 -1.417285 0.728599 -5.354805 -8.518231 0.778090 -3.493648 11.268279 -1.634898 -5.877263 -3.967287 -0.321946 0.406248 0.000000 0.000000 0.000000 1.049817 12.533346 0.897342 -64.832184 13.663562 20.764585 179.915356 -79.648234 179.897785 24.431597 -13.678483 -3.138847 -0.430834 0.540479 -0.000000 0.000000 0.000000 0.000000 0.000000 0.000000 0.000000 10.285123 7.133784 -2.117362 84.413023 20.478032 27.595529 -179.920936 65.833640 179.847129 -14.435703 38.592438 -5.412946 0.242873 -1.659644 -0.000000 0.000000 0.000000 0.000000 0.000000 0.000000 0.000000 
10.128325 16.596952 3.043337 3.533142 34.862434 25.713630 -1.423418 1.551948 -9.610583 -1.551377 1.142833 -5.409512 -8.491672 1.204341 -3.501272 11.217784 -1.503408 -5.956662 -3.974265 -0.322473 0.377652 0.000000 0.000000 0.000000 1.344403 13.096251 0.868397 -64.020737 14.602866 20.731681 179.937259 -78.978369 179.902406 24.285770 -14.053219 -3.203081 -0.431242 0.539780 -0.000000 0.000000 0.000000 0.000000 0.000000 0.000000 0.000000 10.381748 7.583283 -1.989952 84.704436 21.257736 29.077383 179.980619 66.102427 179.858116 -14.030493 38.807336 -5.295398 0.247587 -1.676545 -0.000000 0.000000 0.000000 0.000000 0.000000 0.000000 0.000000 
10.283648 16.749567 3.202608 3.646148 34.551420 25.887908 -1.887126 1.887228 -9.719773 -1.683395 1.521370 -5.453755 -8.464323 1.595154 -3.475950 11.186631 -1.397330 -6.048723 -3.975169 -0.322451 0.346650 0.000000 0.000000 0.000000 1.656273 13.732121 0.835684 -63.250099 15.463627 20.645070 179.959654 -78.333235 179.906944 24.156705 -14.388495 -3.259915 -0.432639 0.538739 -0.000000 0.000000 0.000000 0.000000 0.000000 0.000000 0.000000 10.469262 7.982986 -1.874630 85.015303 21.944462 30.571037 179.884302 66.383934 179.869570 -13.616883 38.983067 -5.167267 0.252473 -1.691629 -0.000000 0.000000 0.000000 0.000000 0.000000 0.000000 0.000000 
10.440226 16.905654 3.366429 3.792574 34.294411 26.026167 -2.362159 2.175418 -9.800806 -1.812729 1.857248 -5.490760 -8.436539 1.942584 -3.444064 11.164274 -1.287964 -6.126619 -3.972163 -0.322313 0.320783 0.000000 0.000000 0.000000 1.963879 14.365453 0.803028 -62.509349 16.351729 20.449234 179.981111 -77.651872 179.911332 24.035266 -14.679787 -3.307352 -0.434552 0.537338 -0.000000 0.000000 0.000000 0.000000 0.000000 0.000000 0.000000 10.544840 8.358511 -1.769358 85.355658 22.528749 32.056123 179.796133 66.685880 179.880773 -13.244521 39.118789 -5.047861 0.258091 -1.704519 -0.000000 0.000000 0.000000 0.000000 0.000000 0.000000 0.000000 
10.597706 17.062631 3.533836 3.989268 34.099617 26.136347 -2.852193 2.410883 -9.845272 -1.939030 2.145618 -5.517759 -8.405804 2.241783 -3.404077 11.141290 -1.159274 -6.189119 -3.964608 -0.321941 0.300062 0.000000 0.000000 0.000000 2.273037 15.020133 0.775341 -61.802188 17.232537 20.167459 -179.997432 -76.948928 179.915492 23.932446 -14.922191 -3.346190 -0.437367 0.535712 -0.000000 0.000000 0.000000 0.000000 0.000000 0.000000 0.000000 10.594727 8.722878 -1.684452 85.735638 23.019406 33.517531 179.722034 67.008623 179.891083 -12.955179 39.216646 -4.953988 0.264896 -1.714928 -0.000000 0.000000 0.000000 0.000000 0.000000 0.000000 0.000000 
10.755892 17.217777 3.703784 4.249004 33.971757 26.227885 -3.357196 2.591227 -9.849419 -2.061505 2.383870 -5.535179 -8.369958 2.489849 -3.363610 11.106682 -0.999332 -6.228892 -3.952405 -0.321369 0.286406 0.000000 0.000000 0.000000 2.578645 15.678897 0.755633 -61.127946 18.121951 19.801269 -179.976127 -76.213510 179.919349 23.851800 -15.116933 -3.377427 -0.441115 0.534042 -0.000000 0.000000 0.000000 0.000000 0.000000 0.000000 0.000000 10.606179 9.086437 -1.623860 86.158581 23.423738 34.942674 179.665635 67.350109 179.899991 -12.780295 39.279111 -4.898758 0.273230 -1.722714 -0.000000 0.000000 0.000000 0.000000 0.000000 0.000000 0.000000 
10.914815 17.368432 3.875059 4.572875 33.912989 26.309015 -3.869404 2.718306 -9.815098 -2.178177 2.572309 -5.544451 -8.326893 2.686812 -3.329261 11.049448 -0.804296 -6.241520 -3.935152 -0.320606 0.281052 0.000000 0.000000 0.000000 2.871306 16.320043 0.744887 -60.486333 19.039734 19.353494 -179.955331 -75.434519 179.922844 23.796530 -15.268054 -3.402761 -0.445778 0.532504 -0.000000 0.000000 0.000000 0.000000 0.000000 0.000000 0.000000 10.565344 9.452871 -1.589263 86.623320 23.753624 36.324291 179.628084 67.704963 179.907185 -12.737243 39.308477 -4.889373 0.283286 -1.727859 -0.000000 0.000000 0.000000 0.000000 0.000000 0.000000 0.000000 
11.074733 17.511917 4.046453 4.949523 33.920439 26.386963 -4.374516 2.798541 -9.751272 -2.286208 2.714808 -5.546737 -8.274185 2.836492 -3.300201 10.960460 -0.578353 -6.230689 -3.911761 -0.319530 0.283024 0.000000 0.000000 0.000000 3.147054 16.941595 0.742827 -59.883772 19.976100 18.841285 -179.935179 -74.618652 179.925923 23.772849 -15.379618 -3.424188 -0.451421 0.531254 -0.000000 0.000000 0.000000 0.000000 0.000000 0.000000 0.000000 10.457307 9.819017 -1.582884 87.125960 24.026596 37.659594 179.608645 68.066396 179.912581 -12.827315 39.307036 -4.926839 0.295028 -1.730405 -0.000000 0.000000 0.000000 0.000000 0.000000 0.000000 0.000000 
11.236048 17.645885 4.216719 5.360595 33.995018 26.455800 -4.852523 2.839715 -9.659598 -2.381831 2.816206 -5.542114 -8.210407 2.943672 -3.275031 10.832976 -0.330587 -6.201356 -3.881508 -0.318030 0.291013 0.000000 0.000000 0.000000 3.400261 17.538719 0.748200 -59.328075 20.920468 18.280695 -179.916056 -73.775643 179.928543 23.786548 -15.456242 -3.443605 -0.458044 0.530389 -0.000000 0.000000 0.000000 0.000000 0.000000 0.000000 0.000000 10.271174 10.176756 -1.604882 87.658143 24.261217 38.947948 179.604601 68.424503 179.916296 -13.034865 39.276495 -5.005258 0.308145 -1.730503 -0.000000 0.000000 0.000000 0.000000 0.000000 0.000000 0.000000 
11.399286 17.768515 4.384728 5.785133 34.139218 26.496922 -5.281045 2.850494 -9.532691 -2.461014 2.882275 -5.529287 -8.135056 3.014104 -3.251970 10.663513 -0.071997 -6.159538 -3.844491 -0.316038 0.303362 0.000000 0.000000 0.000000 3.621834 18.107704 0.759069 -58.827122 21.856061 17.686289 -179.898369 -72.919905 179.930682 23.842256 -15.500558 -3.462311 -0.465611 0.529890 -0.000000 0.000000 0.000000 0.000000 0.000000 0.000000 0.000000 10.003663 10.516755 -1.653094 88.204934 24.473150 40.189444 179.612177 68.771572 179.918610 -13.330075 39.218392 -5.113235 0.322060 -1.728307 -0.000000 0.000000 0.000000 0.000000 0.000000 0.000000 0.000000 
